Coordinates
version=1
nRows=9
nColumns=24
inDegrees=yes

Units are S.I. units (second, meters, Newtons, ...)
Angles are in degrees.

endheader
time	pelvis_tilt	pelvis_list	pelvis_rotation	pelvis_tx	pelvis_ty	pelvis_tz	hip_flexion_r	hip_adduction_r	hip_rotation_r	knee_angle_r	ankle_angle_r	subtalar_angle_r	mtp_angle_r	hip_flexion_l	hip_adduction_l	hip_rotation_l	knee_angle_l	ankle_angle_l	subtalar_angle_l	mtp_angle_l	lumbar_extension	lumbar_bending	lumbar_rotation
      0.99133333	     -7.47826195	     -3.15367876	     -3.31692791	     -0.11143363	      1.00985182	      0.29625325	     -1.85697041	      8.18763414	      0.45336857	    -13.19733395	     11.39909053	     -0.17041117	      9.60995416	     26.73742318	     -3.36873400	    -10.31841680	      3.75877695	      4.09609210	      4.15691167	      4.83952783	      2.12357522	      2.48125563	      6.35923581
      0.99550000	     -7.60818849	     -3.09715026	     -3.40285201	     -0.10550905	      1.00910839	      0.29597123	     -1.84144714	      8.10882263	      0.66457068	    -13.66599870	     11.36640768	     -0.38909222	      9.61853352	     26.82993402	     -3.27801220	     -9.99196597	      3.66352542	      4.01874889	      4.26459939	      4.96077504	      2.32628759	      2.43695024	      6.27622700
      0.99966667	     -7.63420713	     -3.02363476	     -3.45550353	     -0.09956723	      1.00853728	      0.29563726	     -1.90998527	      7.99982449	      0.77872610	    -14.18645792	     11.39145413	     -0.48815167	      9.62666778	     26.81521146	     -3.15538203	     -9.66632859	      3.50129502	      3.91390855	      4.37040849	      5.01589956	      2.37236034	      2.35158453	      6.30033977
      1.00383333	     -7.71745493	     -2.93119551	     -3.54309097	     -0.09359284	      1.00791326	      0.29535291	     -1.88517364	      7.87705601	      0.94484183	    -14.77498125	     11.38520748	     -0.58999645	      9.66013007	     26.83796056	     -3.03221240	     -9.30401626	      3.31429664	      3.71961089	      4.27606157	      5.21096695	      2.53694882	      2.24233557	      6.38683144
      1.00800000	     -7.72744942	     -2.82898437	     -3.58003598	     -0.08763691	      1.00740730	      0.29499253	     -1.91689069	      7.74112380	      1.04327191	    -15.39510118	     11.37040474	     -0.72073462	      9.67477814	     26.82215555	     -2.88127119	     -9.00114401	      3.00412499	      3.55303530	      4.31287420	      5.27970229	      2.54033886	      2.13767915	      6.41083484
      1.01216667	     -7.79523731	     -2.73600089	     -3.64717148	     -0.08166685	      1.00683819	      0.29468421	     -1.86483858	      7.62811207	      1.22790072	    -16.06023496	     11.27812110	     -0.90546477	      9.77722728	     26.82499953	     -2.75245242	     -8.52062070	      2.72577424	      3.21067443	      3.92486210	      5.69154568	      2.66197275	      2.04104620	      6.52577182
      1.01633333	     -7.79606111	     -2.58866175	     -3.70630407	     -0.07559915	      1.00640663	      0.29437955	     -1.86744193	      7.45383166	      1.39683074	    -16.76233303	     11.20359026	     -1.08650705	      9.86108424	     26.75491952	     -2.56876137	     -8.20133459	      2.39878802	      2.91722276	      3.81230241	      5.97431673	      2.72264746	      1.83916488	      6.53397543
      1.02050000	     -7.80041769	     -2.49026214	     -3.74305343	     -0.06962158	      1.00597535	      0.29402557	     -1.83312262	      7.33827435	      1.54595283	    -17.51508035	     11.04675280	     -1.32919885	     10.03830394	     26.71320513	     -2.42520052	     -7.76057178	      1.99640435	      2.53677004	      3.39549409	      6.48272450	      2.74939963	      1.73544194	      6.61499859
      1.02466667	     -7.70295136	     -2.33489440	     -3.77165268	     -0.06353161	      1.00574241	      0.29364942	     -1.88803775	      7.14561339	      1.62795061	    -18.30224178	     10.84893332	     -1.48494115	     11.04078483	     26.53219805	     -2.21565407	     -7.39399593	      1.62206828	      2.09447168	      3.03485642	      8.88636496	      2.65114262	      1.52816885	      6.58702348
